<mxfile host="app.diagrams.net" agent="Mozilla/5.0 (X11; Linux x86_64) AppleWebKit/537.36 (KHTML, like Gecko) Chrome/140.0.0.0 Safari/537.36" version="28.2.3" pages="3">
  <diagram name="Use Case - POC Service" id="JgA3kwZuzpLK-3reWRfy">
    <mxGraphModel dx="2066" dy="800" grid="1" gridSize="10" guides="1" tooltips="1" connect="1" arrows="1" fold="1" page="1" pageScale="1" pageWidth="850" pageHeight="1100" math="0" shadow="0">
      <root>
        <mxCell id="0" />
        <mxCell id="1" parent="0" />
        <mxCell id="lRRClwyAGyrnEjZfybmn-2" value="&lt;span style=&quot;font-weight: normal;&quot;&gt;&amp;lt;&amp;lt;Subsystem&amp;gt;&amp;gt;&lt;/span&gt;&lt;br&gt;POC Service" style="shape=rect;html=1;verticalAlign=top;fontStyle=1;whiteSpace=wrap;align=center;" vertex="1" parent="1">
          <mxGeometry x="160" y="30" width="460" height="680" as="geometry" />
        </mxCell>
        <mxCell id="lRRClwyAGyrnEjZfybmn-1" value="Register POC" style="ellipse;whiteSpace=wrap;html=1;" vertex="1" parent="1">
          <mxGeometry x="320" y="90" width="140" height="70" as="geometry" />
        </mxCell>
        <mxCell id="lRRClwyAGyrnEjZfybmn-3" value="Update POC" style="ellipse;whiteSpace=wrap;html=1;" vertex="1" parent="1">
          <mxGeometry x="320" y="190" width="140" height="70" as="geometry" />
        </mxCell>
        <mxCell id="lRRClwyAGyrnEjZfybmn-4" value="Delete POC" style="ellipse;whiteSpace=wrap;html=1;" vertex="1" parent="1">
          <mxGeometry x="320" y="290" width="140" height="70" as="geometry" />
        </mxCell>
        <mxCell id="lRRClwyAGyrnEjZfybmn-5" value="Search POC by filter" style="ellipse;whiteSpace=wrap;html=1;" vertex="1" parent="1">
          <mxGeometry x="320" y="390" width="140" height="70" as="geometry" />
        </mxCell>
        <mxCell id="lRRClwyAGyrnEjZfybmn-6" value="View reports" style="ellipse;whiteSpace=wrap;html=1;" vertex="1" parent="1">
          <mxGeometry x="320" y="490" width="140" height="70" as="geometry" />
        </mxCell>
        <mxCell id="lRRClwyAGyrnEjZfybmn-7" value="Generate annual video" style="ellipse;whiteSpace=wrap;html=1;" vertex="1" parent="1">
          <mxGeometry x="320" y="590" width="140" height="70" as="geometry" />
        </mxCell>
        <mxCell id="lRRClwyAGyrnEjZfybmn-9" style="rounded=0;orthogonalLoop=1;jettySize=auto;html=1;entryX=0;entryY=0.5;entryDx=0;entryDy=0;" edge="1" parent="1" source="lRRClwyAGyrnEjZfybmn-8" target="lRRClwyAGyrnEjZfybmn-1">
          <mxGeometry relative="1" as="geometry" />
        </mxCell>
        <mxCell id="lRRClwyAGyrnEjZfybmn-10" style="rounded=0;orthogonalLoop=1;jettySize=auto;html=1;entryX=0;entryY=0.5;entryDx=0;entryDy=0;" edge="1" parent="1" source="lRRClwyAGyrnEjZfybmn-8" target="lRRClwyAGyrnEjZfybmn-3">
          <mxGeometry relative="1" as="geometry" />
        </mxCell>
        <mxCell id="lRRClwyAGyrnEjZfybmn-11" style="rounded=0;orthogonalLoop=1;jettySize=auto;html=1;entryX=0;entryY=0.5;entryDx=0;entryDy=0;" edge="1" parent="1" source="lRRClwyAGyrnEjZfybmn-8" target="lRRClwyAGyrnEjZfybmn-4">
          <mxGeometry relative="1" as="geometry" />
        </mxCell>
        <mxCell id="lRRClwyAGyrnEjZfybmn-12" style="rounded=0;orthogonalLoop=1;jettySize=auto;html=1;entryX=0;entryY=0.5;entryDx=0;entryDy=0;" edge="1" parent="1" source="lRRClwyAGyrnEjZfybmn-8" target="lRRClwyAGyrnEjZfybmn-5">
          <mxGeometry relative="1" as="geometry" />
        </mxCell>
        <mxCell id="lRRClwyAGyrnEjZfybmn-13" style="rounded=0;orthogonalLoop=1;jettySize=auto;html=1;entryX=0;entryY=0.5;entryDx=0;entryDy=0;" edge="1" parent="1" source="lRRClwyAGyrnEjZfybmn-8" target="lRRClwyAGyrnEjZfybmn-6">
          <mxGeometry relative="1" as="geometry" />
        </mxCell>
        <mxCell id="lRRClwyAGyrnEjZfybmn-14" style="rounded=0;orthogonalLoop=1;jettySize=auto;html=1;entryX=0;entryY=0.5;entryDx=0;entryDy=0;" edge="1" parent="1" source="lRRClwyAGyrnEjZfybmn-8" target="lRRClwyAGyrnEjZfybmn-7">
          <mxGeometry relative="1" as="geometry" />
        </mxCell>
        <mxCell id="lRRClwyAGyrnEjZfybmn-8" value="User" style="shape=umlActor;html=1;verticalLabelPosition=bottom;verticalAlign=top;align=center;" vertex="1" parent="1">
          <mxGeometry x="70" y="295" width="30" height="60" as="geometry" />
        </mxCell>
      </root>
    </mxGraphModel>
  </diagram>
  <diagram id="dooykA1LGi3fyxo3AJJN" name="Use Case - Kata Service">
    <mxGraphModel dx="2066" dy="800" grid="1" gridSize="10" guides="1" tooltips="1" connect="1" arrows="1" fold="1" page="1" pageScale="1" pageWidth="850" pageHeight="1100" math="0" shadow="0">
      <root>
        <mxCell id="0" />
        <mxCell id="1" parent="0" />
        <mxCell id="0nnVEhXxyepmrw3dyKkC-1" value="&lt;span style=&quot;font-weight: normal;&quot;&gt;&amp;lt;&amp;lt;Subsystem&amp;gt;&amp;gt;&lt;/span&gt;&lt;br&gt;Kata Service" style="shape=rect;html=1;verticalAlign=top;fontStyle=1;whiteSpace=wrap;align=center;" vertex="1" parent="1">
          <mxGeometry x="200" y="350" width="460" height="820" as="geometry" />
        </mxCell>
        <mxCell id="0nnVEhXxyepmrw3dyKkC-16" value="" style="edgeStyle=orthogonalEdgeStyle;rounded=0;orthogonalLoop=1;jettySize=auto;html=1;endArrow=block;endFill=0;" edge="1" parent="1" source="0nnVEhXxyepmrw3dyKkC-14" target="0nnVEhXxyepmrw3dyKkC-15">
          <mxGeometry relative="1" as="geometry" />
        </mxCell>
        <mxCell id="-xiZIAnSrXjE7cqY_fbD-11" style="rounded=0;orthogonalLoop=1;jettySize=auto;html=1;entryX=0;entryY=0.5;entryDx=0;entryDy=0;" edge="1" parent="1" source="0nnVEhXxyepmrw3dyKkC-14" target="-xiZIAnSrXjE7cqY_fbD-10">
          <mxGeometry relative="1" as="geometry" />
        </mxCell>
        <mxCell id="0nnVEhXxyepmrw3dyKkC-14" value="Sensei" style="shape=umlActor;html=1;verticalLabelPosition=bottom;verticalAlign=top;align=center;" vertex="1" parent="1">
          <mxGeometry x="110" y="680" width="30" height="60" as="geometry" />
        </mxCell>
        <mxCell id="-xiZIAnSrXjE7cqY_fbD-2" style="rounded=0;orthogonalLoop=1;jettySize=auto;html=1;entryX=0;entryY=0.5;entryDx=0;entryDy=0;" edge="1" parent="1" source="0nnVEhXxyepmrw3dyKkC-15" target="-xiZIAnSrXjE7cqY_fbD-1">
          <mxGeometry relative="1" as="geometry" />
        </mxCell>
        <mxCell id="-xiZIAnSrXjE7cqY_fbD-7" style="rounded=0;orthogonalLoop=1;jettySize=auto;html=1;entryX=0;entryY=0.5;entryDx=0;entryDy=0;" edge="1" parent="1" source="0nnVEhXxyepmrw3dyKkC-15" target="-xiZIAnSrXjE7cqY_fbD-5">
          <mxGeometry relative="1" as="geometry" />
        </mxCell>
        <mxCell id="-xiZIAnSrXjE7cqY_fbD-9" style="rounded=0;orthogonalLoop=1;jettySize=auto;html=1;entryX=0;entryY=0.5;entryDx=0;entryDy=0;" edge="1" parent="1" source="0nnVEhXxyepmrw3dyKkC-15" target="-xiZIAnSrXjE7cqY_fbD-8">
          <mxGeometry relative="1" as="geometry" />
        </mxCell>
        <mxCell id="0nnVEhXxyepmrw3dyKkC-15" value="User" style="shape=umlActor;html=1;verticalLabelPosition=bottom;verticalAlign=top;align=center;" vertex="1" parent="1">
          <mxGeometry x="110" y="490" width="30" height="60" as="geometry" />
        </mxCell>
        <mxCell id="-xiZIAnSrXjE7cqY_fbD-1" value="Join Dojo Room" style="ellipse;whiteSpace=wrap;html=1;" vertex="1" parent="1">
          <mxGeometry x="355" y="400" width="140" height="70" as="geometry" />
        </mxCell>
        <mxCell id="-xiZIAnSrXjE7cqY_fbD-5" value="Modify code" style="ellipse;whiteSpace=wrap;html=1;" vertex="1" parent="1">
          <mxGeometry x="355" y="490" width="140" height="70" as="geometry" />
        </mxCell>
        <mxCell id="-xiZIAnSrXjE7cqY_fbD-8" value="Run code" style="ellipse;whiteSpace=wrap;html=1;" vertex="1" parent="1">
          <mxGeometry x="355" y="580" width="140" height="70" as="geometry" />
        </mxCell>
        <mxCell id="-xiZIAnSrXjE7cqY_fbD-10" value="End Dojo Room" style="ellipse;whiteSpace=wrap;html=1;" vertex="1" parent="1">
          <mxGeometry x="355" y="675" width="140" height="70" as="geometry" />
        </mxCell>
        <mxCell id="-xiZIAnSrXjE7cqY_fbD-15" style="rounded=0;orthogonalLoop=1;jettySize=auto;html=1;entryX=0;entryY=0.5;entryDx=0;entryDy=0;" edge="1" parent="1" source="-xiZIAnSrXjE7cqY_fbD-12" target="-xiZIAnSrXjE7cqY_fbD-14">
          <mxGeometry relative="1" as="geometry" />
        </mxCell>
        <mxCell id="-xiZIAnSrXjE7cqY_fbD-18" style="rounded=0;orthogonalLoop=1;jettySize=auto;html=1;entryX=0;entryY=0.5;entryDx=0;entryDy=0;" edge="1" parent="1" source="-xiZIAnSrXjE7cqY_fbD-12" target="-xiZIAnSrXjE7cqY_fbD-16">
          <mxGeometry relative="1" as="geometry" />
        </mxCell>
        <mxCell id="-xiZIAnSrXjE7cqY_fbD-19" style="rounded=0;orthogonalLoop=1;jettySize=auto;html=1;entryX=0;entryY=0.5;entryDx=0;entryDy=0;" edge="1" parent="1" source="-xiZIAnSrXjE7cqY_fbD-12" target="-xiZIAnSrXjE7cqY_fbD-17">
          <mxGeometry relative="1" as="geometry" />
        </mxCell>
        <mxCell id="-xiZIAnSrXjE7cqY_fbD-20" style="edgeStyle=orthogonalEdgeStyle;rounded=0;orthogonalLoop=1;jettySize=auto;html=1;endArrow=block;endFill=0;" edge="1" parent="1" source="-xiZIAnSrXjE7cqY_fbD-12" target="0nnVEhXxyepmrw3dyKkC-14">
          <mxGeometry relative="1" as="geometry" />
        </mxCell>
        <mxCell id="-xiZIAnSrXjE7cqY_fbD-22" style="rounded=0;orthogonalLoop=1;jettySize=auto;html=1;entryX=0;entryY=0.5;entryDx=0;entryDy=0;" edge="1" parent="1" source="-xiZIAnSrXjE7cqY_fbD-12" target="-xiZIAnSrXjE7cqY_fbD-21">
          <mxGeometry relative="1" as="geometry" />
        </mxCell>
        <mxCell id="-xiZIAnSrXjE7cqY_fbD-12" value="Kata Admin" style="shape=umlActor;html=1;verticalLabelPosition=bottom;verticalAlign=top;align=center;" vertex="1" parent="1">
          <mxGeometry x="110" y="860" width="30" height="60" as="geometry" />
        </mxCell>
        <mxCell id="-xiZIAnSrXjE7cqY_fbD-14" value="Schedule Kata Session" style="ellipse;whiteSpace=wrap;html=1;" vertex="1" parent="1">
          <mxGeometry x="355" y="770" width="140" height="70" as="geometry" />
        </mxCell>
        <mxCell id="-xiZIAnSrXjE7cqY_fbD-16" value="Create Kata Rooms" style="ellipse;whiteSpace=wrap;html=1;" vertex="1" parent="1">
          <mxGeometry x="355" y="870" width="140" height="70" as="geometry" />
        </mxCell>
        <mxCell id="-xiZIAnSrXjE7cqY_fbD-17" value="Assign users to Rooms" style="ellipse;whiteSpace=wrap;html=1;" vertex="1" parent="1">
          <mxGeometry x="355" y="970" width="140" height="70" as="geometry" />
        </mxCell>
        <mxCell id="-xiZIAnSrXjE7cqY_fbD-21" value="Assign sensei to Rooms" style="ellipse;whiteSpace=wrap;html=1;" vertex="1" parent="1">
          <mxGeometry x="360" y="1070" width="140" height="70" as="geometry" />
        </mxCell>
      </root>
    </mxGraphModel>
  </diagram>
  <diagram id="1JibXpa1jNTzVpeJFueN" name="Overall Architecture">
    <mxGraphModel dx="1739" dy="717" grid="1" gridSize="10" guides="1" tooltips="1" connect="1" arrows="1" fold="1" page="1" pageScale="1" pageWidth="850" pageHeight="1100" math="0" shadow="0">
      <root>
        <mxCell id="0" />
        <mxCell id="1" parent="0" />
        <mxCell id="pKForZ8HzRMwMaCtaCr8-22" value="Storage" style="shape=rect;html=1;verticalAlign=top;fontStyle=1;whiteSpace=wrap;align=center;" vertex="1" parent="1">
          <mxGeometry x="640" y="30" width="190" height="488" as="geometry" />
        </mxCell>
        <mxCell id="IVjiL4A6uNPTTdA4vlZy-1" value="Client (UI)" style="shape=rect;html=1;verticalAlign=top;fontStyle=1;whiteSpace=wrap;align=center;" parent="1" vertex="1">
          <mxGeometry x="30" y="130" width="170" height="280" as="geometry" />
        </mxCell>
        <mxCell id="DQXG8-MHRox03BTgF03d-2" value="Web" style="sketch=0;pointerEvents=1;shadow=0;dashed=0;html=1;strokeColor=none;fillColor=#505050;labelPosition=center;verticalLabelPosition=bottom;verticalAlign=top;outlineConnect=0;align=center;shape=mxgraph.office.devices.mac_client;" parent="1" vertex="1">
          <mxGeometry x="86" y="330" width="58" height="48" as="geometry" />
        </mxCell>
        <mxCell id="DQXG8-MHRox03BTgF03d-3" value="Android" style="dashed=0;outlineConnect=0;html=1;align=center;labelPosition=center;verticalLabelPosition=bottom;verticalAlign=top;shape=mxgraph.weblogos.android;fillColor=#A4CA39;strokeColor=none" parent="1" vertex="1">
          <mxGeometry x="90" y="166" width="50" height="60" as="geometry" />
        </mxCell>
        <mxCell id="DQXG8-MHRox03BTgF03d-5" value="iOS" style="dashed=0;outlineConnect=0;html=1;align=center;labelPosition=center;verticalLabelPosition=bottom;verticalAlign=top;shape=mxgraph.weblogos.apple;fillColor=#1B1C1C;strokeColor=none" parent="1" vertex="1">
          <mxGeometry x="95" y="253" width="40" height="50" as="geometry" />
        </mxCell>
        <mxCell id="pKForZ8HzRMwMaCtaCr8-23" style="edgeStyle=orthogonalEdgeStyle;rounded=0;orthogonalLoop=1;jettySize=auto;html=1;entryX=0;entryY=0.5;entryDx=0;entryDy=0;" edge="1" parent="1" source="IVjiL4A6uNPTTdA4vlZy-9" target="pKForZ8HzRMwMaCtaCr8-22">
          <mxGeometry relative="1" as="geometry" />
        </mxCell>
        <mxCell id="IVjiL4A6uNPTTdA4vlZy-9" value="Backend" style="shape=rect;html=1;verticalAlign=top;fontStyle=1;whiteSpace=wrap;align=center;" parent="1" vertex="1">
          <mxGeometry x="400" y="30" width="190" height="488" as="geometry" />
        </mxCell>
        <mxCell id="IVjiL4A6uNPTTdA4vlZy-14" value="POC Service" style="image;points=[];aspect=fixed;html=1;align=center;shadow=0;dashed=0;image=img/lib/allied_telesis/computer_and_terminals/Server_Desktop.svg;" parent="1" vertex="1">
          <mxGeometry x="473.7" y="317" width="42.599999999999994" height="54" as="geometry" />
        </mxCell>
        <mxCell id="IVjiL4A6uNPTTdA4vlZy-15" value="Report Service" style="image;points=[];aspect=fixed;html=1;align=center;shadow=0;dashed=0;image=img/lib/allied_telesis/computer_and_terminals/Server_Desktop.svg;" parent="1" vertex="1">
          <mxGeometry x="473.7" y="230" width="42.599999999999994" height="54" as="geometry" />
        </mxCell>
        <mxCell id="IVjiL4A6uNPTTdA4vlZy-16" value="Video Service" style="image;points=[];aspect=fixed;html=1;align=center;shadow=0;dashed=0;image=img/lib/allied_telesis/computer_and_terminals/Server_Desktop.svg;" parent="1" vertex="1">
          <mxGeometry x="473.7" y="418" width="42.599999999999994" height="54" as="geometry" />
        </mxCell>
        <mxCell id="IVjiL4A6uNPTTdA4vlZy-17" value="Kata Service" style="image;points=[];aspect=fixed;html=1;align=center;shadow=0;dashed=0;image=img/lib/allied_telesis/computer_and_terminals/Server_Desktop.svg;" parent="1" vertex="1">
          <mxGeometry x="473.7" y="60" width="42.599999999999994" height="54" as="geometry" />
        </mxCell>
        <mxCell id="IVjiL4A6uNPTTdA4vlZy-20" value="Cache" style="image;sketch=0;aspect=fixed;html=1;points=[];align=center;fontSize=12;image=img/lib/mscae/Cache_Redis_Product.svg;" parent="1" vertex="1">
          <mxGeometry x="708.71" y="60" width="56.08" height="47.1" as="geometry" />
        </mxCell>
        <mxCell id="pKForZ8HzRMwMaCtaCr8-24" style="edgeStyle=orthogonalEdgeStyle;rounded=0;orthogonalLoop=1;jettySize=auto;html=1;entryX=0;entryY=0.5;entryDx=0;entryDy=0;" edge="1" parent="1" source="pKForZ8HzRMwMaCtaCr8-2" target="IVjiL4A6uNPTTdA4vlZy-9">
          <mxGeometry relative="1" as="geometry" />
        </mxCell>
        <mxCell id="pKForZ8HzRMwMaCtaCr8-26" style="edgeStyle=orthogonalEdgeStyle;rounded=0;orthogonalLoop=1;jettySize=auto;html=1;" edge="1" parent="1" source="pKForZ8HzRMwMaCtaCr8-2">
          <mxGeometry relative="1" as="geometry">
            <mxPoint x="299.7499999999998" y="210" as="targetPoint" />
          </mxGeometry>
        </mxCell>
        <mxCell id="pKForZ8HzRMwMaCtaCr8-2" value="&lt;span style=&quot;font-weight: normal;&quot;&gt;&lt;font style=&quot;color: light-dark(rgb(0, 0, 0), rgb(255, 255, 255));&quot;&gt;API Gateway&lt;/font&gt;&lt;/span&gt;" style="sketch=0;html=1;verticalAlign=top;labelPosition=center;verticalLabelPosition=bottom;align=center;spacingTop=-6;fontSize=11;fontStyle=1;fontColor=#999999;shape=image;aspect=fixed;imageAspect=0;image=data:image/svg+xml,PHN2ZyB4bWxucz0iaHR0cDovL3d3dy53My5vcmcvMjAwMC9zdmciIGhlaWdodD0iMzY3LjgxODMyODg1NzQyMTkiIHZpZXdCb3g9IjcuMTA1NDI3MzU3NjAxMDAyZS0xNSAwIDM2Ni40MTAxODY3Njc1NzgxIDM2Ny44MTgzMjg4NTc0MjE5IiBwcmVzZXJ2ZUFzcGVjdFJhdGlvPSJ4TWlkWU1pZCBtZWV0IiB3aWR0aD0iMzY2LjQxMDE5Njc2NzU3OTEiIHZlcnNpb249IjEuMSIgaWQ9InN2Zzk4NyIgem9vbUFuZFBhbj0ibWFnbmlmeSI+JiN4YTsgIDxwYXRoIGQ9Im0gNDguMjUxOTYsMTExLjUzOTA2IGMgLTcuNjE4NjQsMmUtNCAtMTMuNzk0NzIsNi4xNzYyOCAtMTMuNzk0OTMsMTMuNzk0OTIgMi4xZS00LDcuNjE4NjQgNi4xNzYyOSwxMy43OTQ3MiAxMy43OTQ5MywxMy43OTQ5MiBoIDE0NS4xNDY5MiB2IC0yNy41ODk4NCB6IG0gMjM4LjYwODU5LDU3LjQ1MTE3IGggNjUuNzU0NjkgYyA3LjYxODY0LC0yLjFlLTQgMTMuNzk0NzEsLTYuMTc2MjggMTMuNzk0OTIsLTEzLjc5NDkyIC0yLjFlLTQsLTcuNjE4NjQgLTYuMTc2MjgsLTEzLjc5NDcxIC0xMy43OTQ5MiwtMTMuNzk0OTIgSCAyODQuODUwNiBaIE0gMTMuNzk0OTIsMTcwLjk3NDYxIEMgNi4xNzYyODAxLDE3MC45NzQ4MiAyLjEwMDkxOWUtNCwxNzcuMTUwODkgOS4xODk5MjFlLTgsMTg0Ljc2OTUzIC04LjY5OTA4MWUtNCwxOTIuMzg4OTMgNi4xNzU1MjAxLDE5OC41NjYxOSAxMy43OTQ5MiwxOTguNTY2NCBIIDE5My4zOTg4OCBWIDE3MC45NzQ2MSBaIE0gMjg0LjMwNzgsMjI3LjU2NjQgaCA2OC4zMDc0NCBjIDcuNjE4NjQsLTIuMWUtNCAxMy43OTQ3MSwtNi4xNzYyOCAxMy43OTQ5MiwtMTMuNzk0OTIgLTIuMWUtNCwtNy42MTg2NCAtNi4xNzYyOCwtMTMuNzk0NzEgLTEzLjc5NDkyLC0xMy43OTQ5MiBoIC02NS45MjE3OCB6IG0gLTIzNi4wNTU4NCwxLjY5NzI3IGMgLTcuNjE4NjQsMmUtNCAtMTMuNzk0NzIsNi4xNzYyOCAtMTMuNzk0OTMsMTMuNzk0OTIgMi4xZS00LDcuNjE4NjQgNi4xNzYyOSwxMy43OTQ3MiAxMy43OTQ5MywxMy43OTQ5MiBIIDE5My4zOTg4OCBWIDIyOS4yNjM2NyBaIE0gMTg5LjUyMTQ5LDAgYyAtMjQuNTc0MTEsMCAtNDkuMTY3MzcsMjAuMDU1MDcgLTU5LjQzNzUsNzUuMzczMDQgaCAzMC41ODAwNyBjIDQuNjE2MzMsLTI0LjE2MjA2IDE1LjM0ODk2LC00Ny41MjE0OCAyNy44NTM1MiwtNDcuNTIxNDggMTIuMTU4OCwwIDM5LjQ1ODk4LDU3LjQ1MDQ0IDM5LjQ1ODk4LDE2MC40MTQwNiAwLDY5LjkxNTEzIC0xOS41NzgwOSwxNTIuMTE1MjQgLTQxLjE3MTg3LDE1Mi4xMTUyMyAtMTUuMjY4ODEsMmUtNSAtMjEuMjE2NjgsLTI4LjMzMzU2IC0yNS40NDMzNiwtNDYuNzE4NzQgbCAtMzAuNDE0MDYsLTAuMDY4NCBjIDQuMjIwNzQsMjAuNTQwODcgMTYuOTA3NjgsNzQuMjI0NiA1Ny43MTI4OSw3NC4yMjQ2IDUzLjQzNjcyLDAgNjguOTEyMTEsLTExMS45OTMwNSA2OC45MTIxMSwtMTgwLjQ2Mjg5IEMgMjU3LjU3MjI3LDkzLjgwMDc2IDIzNi41ODM0LDAgMTg5LjUyMTQ5LDAgWiIgc3R5bGU9ImNvbG9yOiMwMDAwMDA7b3BhY2l0eToxO2ZpbGw6IzQyODVmNDtmaWxsLW9wYWNpdHk6MTtzdHJva2UtbGluZWNhcDpyb3VuZDstaW5rc2NhcGUtc3Ryb2tlOm5vbmUiLz4mI3hhOzwvc3ZnPg==;" vertex="1" parent="1">
          <mxGeometry x="271.75" y="246" width="56" height="56" as="geometry" />
        </mxCell>
        <mxCell id="pKForZ8HzRMwMaCtaCr8-4" value="Auth" style="outlineConnect=0;dashed=0;verticalLabelPosition=bottom;verticalAlign=top;align=center;html=1;shape=mxgraph.aws3.add_on;fillColor=#759C3E;gradientColor=none;" vertex="1" parent="1">
          <mxGeometry x="264.75" y="144.1" width="70" height="40" as="geometry" />
        </mxCell>
        <mxCell id="pKForZ8HzRMwMaCtaCr8-7" value="Relational DB" style="image;html=1;image=img/lib/clip_art/computers/Database_128x128.png" vertex="1" parent="1">
          <mxGeometry x="703.73" y="217.55" width="70" height="63" as="geometry" />
        </mxCell>
        <mxCell id="pKForZ8HzRMwMaCtaCr8-10" value="Search Service" style="image;points=[];aspect=fixed;html=1;align=center;shadow=0;dashed=0;image=img/lib/allied_telesis/computer_and_terminals/Server_Desktop.svg;" vertex="1" parent="1">
          <mxGeometry x="473.7" y="150" width="42.599999999999994" height="54" as="geometry" />
        </mxCell>
        <mxCell id="pKForZ8HzRMwMaCtaCr8-11" value="File storage" style="image;aspect=fixed;html=1;points=[];align=center;fontSize=12;image=img/lib/azure2/general/Folder_Blank.svg;" vertex="1" parent="1">
          <mxGeometry x="709.6500000000001" y="426.55" width="54.21" height="44" as="geometry" />
        </mxCell>
        <mxCell id="pKForZ8HzRMwMaCtaCr8-15" value="Search index" style="image;aspect=fixed;html=1;points=[];align=center;fontSize=12;image=img/lib/azure2/app_services/Search_Services.svg;" vertex="1" parent="1">
          <mxGeometry x="706.95" y="140.65" width="63.55" height="45.9" as="geometry" />
        </mxCell>
        <mxCell id="pKForZ8HzRMwMaCtaCr8-18" value="Queue" style="outlineConnect=0;dashed=0;verticalLabelPosition=bottom;verticalAlign=top;align=center;html=1;shape=mxgraph.aws3.queue;fillColor=#D9A741;gradientColor=none;" vertex="1" parent="1">
          <mxGeometry x="700" y="326.55" width="73.5" height="48" as="geometry" />
        </mxCell>
        <mxCell id="pKForZ8HzRMwMaCtaCr8-25" style="edgeStyle=orthogonalEdgeStyle;rounded=0;orthogonalLoop=1;jettySize=auto;html=1;" edge="1" parent="1">
          <mxGeometry relative="1" as="geometry">
            <mxPoint x="200" y="274" as="sourcePoint" />
            <mxPoint x="269" y="274" as="targetPoint" />
          </mxGeometry>
        </mxCell>
      </root>
    </mxGraphModel>
  </diagram>
</mxfile>
